<svg xmlns="http://www.w3.org/2000/svg" xmlns:xlink="http://www.w3.org/1999/xlink" width="640" zoomAndPan="magnify" viewBox="0 0 480 479.999983" height="640" preserveAspectRatio="xMidYMid meet" version="1.0"><rect x="-48" width="576" fill="#ffffff" y="-47.999998" height="575.99998" fill-opacity="1"/><rect x="-48" width="576" fill="#ffffff" y="-47.999998" height="575.99998" fill-opacity="1"/><path fill="#415c61" d="M 263.722656 19.410156 C 263.722656 19.410156 264.050781 15.9375 266.265625 13.195312 C 271.566406 6.628906 282.375 2.050781 277.851562 1.402344 C 268.03125 -0.00390625 251.640625 9.875 251.425781 17.503906 C 251.425781 17.503906 233.832031 0.34375 210.941406 5.003906 C 188.046875 9.664062 156.464844 49.699219 160.492188 63.679688 C 164.519531 77.660156 176.601562 93.121094 169.605469 137.179688 C 162.613281 181.238281 101.140625 203.601562 104.636719 253.265625 C 108.136719 302.929688 183.589844 350.269531 239.816406 350.269531 C 296.046875 350.269531 370.449219 299.75 390.164062 263.53125 C 409.875 227.308594 405.105469 207.929688 381.578125 192.199219 C 358.050781 176.472656 314.488281 140.570312 304.632812 107.523438 C 294.777344 74.480469 313.535156 45.886719 295.730469 31.269531 C 277.925781 16.65625 263.722656 19.40625 263.722656 19.40625 Z M 263.722656 19.410156 " fill-opacity="1" fill-rule="nonzero"/><path fill="#f7beaa" d="M 155.191406 212.171875 C 145.972656 236.398438 124.601562 311.460938 124.484375 311.96875 C 124.484375 311.972656 117.671875 331.003906 102.09375 351.179688 C 86.515625 371.355469 67.753906 390.578125 58.109375 417.054688 C 48.019531 444.757812 61.507812 453.722656 63.410156 454.441406 C 64.304688 454.777344 65.121094 454.828125 65.878906 454.667969 C 66.375 455.59375 67.207031 456.664062 68.390625 456.664062 C 70.722656 456.664062 72.628906 455.289062 72.628906 452.746094 C 72.628906 452.386719 72.621094 451.648438 72.625 450.613281 C 73.5625 452.496094 74.945312 453.21875 76.34375 453.214844 C 79.378906 453.214844 80.015625 449.675781 80.15625 445.863281 C 80.152344 445.285156 80.15625 444.714844 80.164062 444.152344 C 80.367188 444.214844 80.578125 444.289062 80.792969 444.378906 C 80.792969 444.378906 86.9375 447.875 89.550781 429.441406 C 92.039062 411.875 101.390625 400.96875 108.453125 392.800781 C 123.042969 375.925781 153.761719 341.347656 159.644531 321.523438 C 159.785156 321.078125 179.667969 258.511719 191.121094 222.179688 Z M 155.191406 212.171875 " fill-opacity="1" fill-rule="nonzero"/><path fill="#7dca7c" d="M 348.378906 477 C 348.378906 477 308.316406 322.371094 307.46875 317.816406 C 306.621094 313.261719 304.289062 314.109375 304.289062 314.109375 L 299.890625 310.984375 L 203.679688 310.984375 C 203.679688 310.984375 199.28125 314.109375 199.28125 314.109375 C 199.28125 314.109375 196.949219 313.261719 196.101562 317.816406 C 195.253906 322.371094 155.191406 477 155.191406 477 Z M 348.378906 477 " fill-opacity="1" fill-rule="nonzero"/><path fill="#5e985d" d="M 307.46875 317.816406 C 306.621094 313.261719 304.289062 314.109375 304.289062 314.109375 L 299.890625 310.984375 L 280.007812 310.984375 L 234.597656 322.414062 L 247.242188 453.773438 C 247.242188 453.773438 250.019531 464.707031 276.289062 477 L 348.378906 477 C 348.378906 477 308.316406 322.371094 307.464844 317.816406 Z M 307.46875 317.816406 " fill-opacity="1" fill-rule="nonzero"/><path fill="#ed6148" d="M 178.933594 172.402344 C 178.933594 172.402344 211.464844 158.847656 239.816406 158.847656 C 268.171875 158.847656 291.914062 157.363281 304.632812 162.023438 C 317.351562 166.683594 335.367188 178.121094 351.691406 198.457031 C 351.691406 198.457031 341.9375 222.605469 314.382812 226.417969 L 318.574219 255.960938 C 318.574219 255.960938 311.636719 279.34375 304.292969 299.078125 C 303.457031 301.320312 304.289062 314.109375 303.570312 315.59375 C 303.570312 315.59375 234.679688 332.539062 199.28125 314.109375 L 198.433594 299.285156 C 198.433594 299.285156 188.542969 285.25 181.925781 268.679688 C 180.542969 265.21875 179.730469 261.554688 179.5 257.828125 C 179.292969 254.460938 179.046875 250.09375 178.933594 246.804688 C 178.933594 246.804688 153.285156 244.421875 142.792969 228.375 C 142.792969 228.375 164.835938 180.453125 178.933594 172.402344 Z M 178.933594 172.402344 " fill-opacity="1" fill-rule="nonzero"/><path fill="#d24e3e" d="M 295.875 192.34375 C 296.441406 182.796875 306.628906 173.371094 315.355469 166.988281 C 311.511719 164.863281 307.894531 163.21875 304.632812 162.023438 C 303.617188 161.652344 302.53125 161.320312 301.382812 161.023438 C 292.160156 169.222656 283.933594 180.273438 283.933594 180.273438 C 283.933594 180.273438 281.882812 194.621094 267.042969 198.808594 C 252.203125 203 255.214844 216.257812 254.710938 228.101562 C 254.386719 235.691406 258.679688 239.925781 261.804688 241.988281 C 263.765625 243.28125 264.914062 245.5 264.875 247.847656 L 264.351562 281.921875 C 264.320312 284.039062 262.847656 285.863281 260.78125 286.339844 L 237.964844 291.601562 C 235.996094 292.054688 234.597656 293.808594 234.597656 295.828125 L 234.597656 322.414062 C 267.824219 324.386719 303.570312 315.59375 303.570312 315.59375 C 304.289062 314.109375 303.457031 301.320312 304.292969 299.078125 C 311.636719 279.339844 318.574219 255.960938 318.574219 255.960938 L 314.382812 226.417969 C 321.117188 225.484375 326.78125 223.339844 331.507812 220.628906 Z M 295.875 192.34375 " fill-opacity="1" fill-rule="nonzero"/><path fill="#d64f40" d="M 178.933594 246.804688 C 178.964844 247.742188 178.992188 244.820312 178.992188 244.820312 C 179.269531 235.972656 180.53125 200.027344 183.171875 187.390625 C 183.171875 187.390625 173.417969 217.097656 163.664062 243.214844 C 171.882812 246.148438 178.933594 246.804688 178.933594 246.804688 Z M 178.933594 246.804688 " fill-opacity="1" fill-rule="nonzero"/><path fill="#f7beaa" d="M 254.339844 159.058594 C 254.339844 172.664062 225.296875 172.664062 225.296875 159.058594 L 225.296875 136.074219 C 225.296875 136.074219 254.339844 136.074219 254.339844 136.074219 Z M 254.339844 159.058594 " fill-opacity="1" fill-rule="nonzero"/><path fill="#cf7b61" d="M 225.296875 147.453125 C 235.25 154.726562 249.886719 158.300781 254.339844 158.75 L 254.339844 141.632812 C 249.988281 143.679688 245.15625 144.859375 239.816406 144.859375 C 234.480469 144.859375 229.648438 143.679688 225.296875 141.632812 Z M 225.296875 147.453125 " fill-opacity="1" fill-rule="nonzero"/><path fill="#f7beaa" d="M 286.347656 78.136719 C 283.511719 78.136719 281.75 79.5625 280.671875 81.136719 L 280.46875 81.152344 C 268.542969 81.460938 263.488281 73.820312 262.277344 60.824219 C 261.289062 50.222656 260.648438 45.367188 255.914062 42.316406 C 251.621094 39.554688 249.140625 57.0625 223.445312 66.539062 C 194.386719 77.253906 194.617188 82.425781 194.617188 87.824219 C 195.730469 107.84375 209.882812 144.859375 239.816406 144.859375 C 264.304688 144.859375 278.230469 120.089844 283.097656 100.117188 L 285.160156 100.03125 C 291.03125 100.03125 294.105469 94.65625 294.105469 89.199219 C 294.105469 83.738281 292.707031 78.136719 286.347656 78.136719 Z M 286.347656 78.136719 " fill-opacity="1" fill-rule="nonzero"/><path fill="#4d4d4d" d="M 223.980469 92.273438 C 223.980469 92.753906 223.953125 93.230469 223.902344 93.699219 C 223.847656 94.171875 223.769531 94.628906 223.664062 95.070312 C 223.5625 95.515625 223.433594 95.933594 223.285156 96.335938 C 223.132812 96.734375 222.960938 97.101562 222.769531 97.441406 C 222.578125 97.78125 222.367188 98.085938 222.144531 98.351562 C 221.917969 98.617188 221.679688 98.84375 221.429688 99.027344 C 221.175781 99.210938 220.917969 99.347656 220.652344 99.441406 C 220.386719 99.535156 220.117188 99.582031 219.847656 99.582031 C 219.574219 99.582031 219.304688 99.535156 219.039062 99.441406 C 218.773438 99.347656 218.515625 99.210938 218.265625 99.027344 C 218.015625 98.84375 217.777344 98.617188 217.550781 98.351562 C 217.324219 98.085938 217.117188 97.78125 216.921875 97.441406 C 216.730469 97.101562 216.558594 96.734375 216.410156 96.335938 C 216.257812 95.933594 216.132812 95.515625 216.027344 95.070312 C 215.925781 94.628906 215.84375 94.171875 215.792969 93.699219 C 215.738281 93.230469 215.714844 92.753906 215.714844 92.273438 C 215.714844 91.792969 215.738281 91.320312 215.792969 90.847656 C 215.84375 90.378906 215.925781 89.921875 216.027344 89.476562 C 216.132812 89.035156 216.257812 88.613281 216.410156 88.214844 C 216.558594 87.816406 216.730469 87.445312 216.921875 87.105469 C 217.117188 86.769531 217.324219 86.464844 217.550781 86.199219 C 217.777344 85.929688 218.015625 85.707031 218.265625 85.523438 C 218.515625 85.339844 218.773438 85.199219 219.039062 85.105469 C 219.304688 85.011719 219.574219 84.964844 219.847656 84.964844 C 220.117188 84.964844 220.386719 85.011719 220.652344 85.105469 C 220.917969 85.199219 221.175781 85.339844 221.429688 85.523438 C 221.679688 85.707031 221.917969 85.929688 222.144531 86.199219 C 222.367188 86.464844 222.578125 86.769531 222.769531 87.105469 C 222.960938 87.445312 223.132812 87.816406 223.285156 88.214844 C 223.433594 88.613281 223.5625 89.035156 223.664062 89.476562 C 223.769531 89.921875 223.847656 90.378906 223.902344 90.847656 C 223.953125 91.320312 223.980469 91.792969 223.980469 92.273438 Z M 223.980469 92.273438 " fill-opacity="1" fill-rule="nonzero"/><path fill="#4d4d4d" d="M 228.21875 83.058594 C 227.800781 83.058594 227.382812 82.890625 227.070312 82.566406 C 225.457031 80.867188 222.914062 79.875 220.097656 79.839844 C 217.160156 79.808594 214.355469 80.832031 212.59375 82.59375 C 211.976562 83.210938 210.972656 83.210938 210.351562 82.59375 C 209.730469 81.972656 209.730469 80.96875 210.351562 80.351562 C 212.738281 77.964844 216.308594 76.617188 220.136719 76.671875 C 223.804688 76.714844 227.167969 78.066406 229.367188 80.378906 C 229.972656 81.011719 229.949219 82.015625 229.3125 82.621094 C 229.003906 82.914062 228.613281 83.058594 228.21875 83.058594 Z M 228.21875 83.058594 " fill-opacity="1" fill-rule="nonzero"/><path fill="#4d4d4d" d="M 258.472656 92.273438 C 258.472656 92.753906 258.445312 93.230469 258.390625 93.699219 C 258.339844 94.171875 258.261719 94.628906 258.15625 95.070312 C 258.054688 95.515625 257.925781 95.933594 257.773438 96.335938 C 257.625 96.734375 257.453125 97.101562 257.261719 97.441406 C 257.070312 97.78125 256.859375 98.085938 256.632812 98.351562 C 256.410156 98.617188 256.171875 98.84375 255.917969 99.027344 C 255.667969 99.210938 255.410156 99.347656 255.144531 99.441406 C 254.878906 99.535156 254.609375 99.582031 254.339844 99.582031 C 254.066406 99.582031 253.796875 99.535156 253.53125 99.441406 C 253.265625 99.347656 253.007812 99.210938 252.757812 99.027344 C 252.503906 98.84375 252.265625 98.617188 252.042969 98.351562 C 251.816406 98.085938 251.605469 97.78125 251.414062 97.441406 C 251.222656 97.101562 251.050781 96.734375 250.902344 96.335938 C 250.75 95.933594 250.625 95.515625 250.519531 95.070312 C 250.414062 94.628906 250.335938 94.171875 250.285156 93.699219 C 250.230469 93.230469 250.203125 92.753906 250.203125 92.273438 C 250.203125 91.792969 250.230469 91.320312 250.285156 90.847656 C 250.335938 90.378906 250.414062 89.921875 250.519531 89.476562 C 250.625 89.035156 250.75 88.613281 250.902344 88.214844 C 251.050781 87.816406 251.222656 87.445312 251.414062 87.105469 C 251.605469 86.769531 251.816406 86.464844 252.042969 86.199219 C 252.265625 85.929688 252.503906 85.707031 252.757812 85.523438 C 253.007812 85.339844 253.265625 85.199219 253.53125 85.105469 C 253.796875 85.011719 254.066406 84.964844 254.339844 84.964844 C 254.609375 84.964844 254.878906 85.011719 255.144531 85.105469 C 255.410156 85.199219 255.667969 85.339844 255.917969 85.523438 C 256.171875 85.707031 256.410156 85.929688 256.632812 86.199219 C 256.859375 86.464844 257.070312 86.769531 257.261719 87.105469 C 257.453125 87.445312 257.625 87.816406 257.773438 88.214844 C 257.925781 88.613281 258.054688 89.035156 258.15625 89.476562 C 258.261719 89.921875 258.339844 90.378906 258.390625 90.847656 C 258.445312 91.320312 258.472656 91.792969 258.472656 92.273438 Z M 258.472656 92.273438 " fill-opacity="1" fill-rule="nonzero"/><path fill="#4d4d4d" d="M 262.710938 83.058594 C 262.292969 83.058594 261.875 82.890625 261.5625 82.566406 C 259.945312 80.867188 257.40625 79.875 254.589844 79.839844 C 251.652344 79.808594 248.847656 80.832031 247.085938 82.59375 C 246.46875 83.210938 245.464844 83.210938 244.84375 82.59375 C 244.222656 81.972656 244.222656 80.96875 244.84375 80.351562 C 247.230469 77.964844 250.796875 76.617188 254.628906 76.671875 C 258.296875 76.714844 261.660156 78.066406 263.859375 80.378906 C 264.464844 81.011719 264.441406 82.015625 263.804688 82.621094 C 263.496094 82.914062 263.105469 83.058594 262.710938 83.058594 Z M 262.710938 83.058594 " fill-opacity="1" fill-rule="nonzero"/><path fill="#4d4d4d" d="M 234.160156 112.5 L 234.148438 112.5 C 233.632812 112.5 233.148438 112.28125 232.792969 111.882812 C 232.261719 111.292969 231.957031 110.359375 231.953125 107.335938 C 231.949219 105.703125 232.039062 103.542969 232.222656 100.917969 C 232.527344 96.472656 232.992188 92.148438 233 92.105469 C 233.09375 91.234375 233.875 90.605469 234.746094 90.699219 C 235.617188 90.792969 236.246094 91.574219 236.152344 92.445312 C 235.453125 98.933594 234.945312 106.53125 235.179688 109.203125 C 236.660156 108.832031 237.601562 107.773438 237.613281 107.761719 C 238.179688 107.09375 239.175781 107.015625 239.847656 107.582031 C 240.515625 108.148438 240.59375 109.15625 240.023438 109.824219 C 239.933594 109.933594 237.710938 112.5 234.160156 112.5 Z M 235.316406 110.007812 L 235.320312 110.007812 Z M 235.316406 110.007812 " fill-opacity="1" fill-rule="nonzero"/><path fill="#4d4d4d" d="M 234.984375 125.246094 C 231.742188 125.246094 229.464844 124.476562 229.285156 124.414062 C 228.457031 124.128906 228.019531 123.222656 228.308594 122.394531 C 228.59375 121.570312 229.496094 121.132812 230.324219 121.417969 C 230.632812 121.523438 237.601562 123.816406 244.15625 119.21875 C 249.605469 115.398438 251.597656 109.558594 251.617188 109.5 C 251.890625 108.667969 252.789062 108.21875 253.621094 108.492188 C 254.449219 108.765625 254.902344 109.660156 254.632812 110.492188 C 254.539062 110.769531 252.320312 117.367188 245.980469 121.816406 C 242.097656 124.539062 238.097656 125.246094 234.984375 125.246094 Z M 234.984375 125.246094 " fill-opacity="1" fill-rule="nonzero"/><path fill="#f49869" d="M 282.648438 101.878906 C 280.640625 101.101562 278.457031 100.671875 276.171875 100.671875 C 266.269531 100.671875 258.242188 108.695312 258.242188 118.59375 C 258.242188 124.65625 261.257812 130.019531 265.871094 133.261719 C 274.238281 124.710938 279.753906 112.730469 282.648438 101.878906 Z M 282.648438 101.878906 " fill-opacity="1" fill-rule="nonzero"/><path fill="#f49869" d="M 213.742188 133.238281 C 218.339844 129.996094 221.339844 124.644531 221.339844 118.59375 C 221.339844 108.695312 213.3125 100.675781 203.410156 100.675781 C 201.144531 100.675781 198.976562 101.09375 196.984375 101.859375 C 199.875 112.707031 205.382812 124.683594 213.742188 133.238281 Z M 213.742188 133.238281 " fill-opacity="1" fill-rule="nonzero"/><path fill="#cf7b61" d="M 283.699219 90.878906 C 283.625 90.878906 283.550781 90.871094 283.476562 90.855469 C 282.945312 90.730469 282.613281 90.203125 282.730469 89.671875 C 282.765625 89.519531 283.628906 85.882812 287.4375 84.21875 C 287.9375 84 288.523438 84.226562 288.742188 84.726562 C 288.960938 85.230469 288.734375 85.8125 288.230469 86.035156 C 285.363281 87.285156 284.691406 90 284.667969 90.113281 C 284.558594 90.570312 284.148438 90.878906 283.699219 90.878906 Z M 283.699219 90.878906 " fill-opacity="1" fill-rule="nonzero"/><path fill="#c98f61" d="M 311.164062 164.976562 C 311.695312 164.890625 311.8125 164.179688 311.335938 163.925781 C 309.082031 162.734375 306.929688 161.734375 304.90625 160.910156 C 303.1875 160.210938 301.257812 159.621094 299.132812 159.121094 C 298.128906 158.882812 297.074219 159.019531 296.160156 159.496094 C 284.390625 165.640625 276.929688 177.433594 273.957031 194.640625 C 268.300781 227.359375 273.496094 288.011719 275.714844 313.910156 C 275.828125 315.226562 275.933594 316.472656 276.03125 317.621094 C 276.226562 319.953125 278.273438 321.6875 280.609375 321.503906 L 281.996094 321.398438 C 284.355469 321.214844 286.113281 319.148438 285.914062 316.792969 C 285.816406 315.636719 285.710938 314.390625 285.597656 313.066406 C 283.410156 287.546875 278.292969 227.785156 283.730469 196.324219 C 287.515625 174.414062 298.828125 166.9375 311.164062 164.976562 Z M 311.164062 164.976562 " fill-opacity="1" fill-rule="nonzero"/><path fill="#977459" d="M 397.476562 283.609375 L 386.664062 276.195312 L 250.898438 304.992188 L 262.660156 312.414062 L 354.734375 335.824219 Z M 397.476562 283.609375 " fill-opacity="1" fill-rule="nonzero"/><path fill="#eac084" d="M 290.117188 458.890625 C 290.117188 458.890625 274.109375 455.078125 264.886719 443.320312 C 264.886719 443.320312 255.984375 373.191406 250.898438 304.992188 L 262.660156 312.417969 C 262.660156 312.417969 309.976562 373.039062 290.117188 458.890625 Z M 290.117188 458.890625 " fill-opacity="1" fill-rule="nonzero"/><path fill="#f3d4b5" d="M 262.660156 312.414062 C 262.660156 312.414062 363.136719 296.105469 397.476562 283.609375 C 397.476562 283.609375 406.695312 355.945312 415.597656 384.859375 C 424.5 413.773438 422.277344 431.566406 422.277344 431.566406 C 422.277344 431.566406 358.90625 468.105469 290.117188 458.890625 C 290.117188 458.890625 270.609375 411.867188 262.660156 312.417969 Z M 262.660156 312.414062 " fill-opacity="1" fill-rule="nonzero"/><path fill="#eac084" d="M 311.179688 164.28125 C 311.710938 164.179688 311.804688 163.460938 311.316406 163.226562 C 309.011719 162.117188 306.816406 161.1875 304.757812 160.4375 C 303.011719 159.800781 301.050781 159.277344 298.902344 158.847656 C 297.886719 158.648438 296.835938 158.820312 295.933594 159.328125 C 284.335938 165.882812 277.265625 177.925781 274.882812 195.226562 C 270.355469 228.121094 277.695312 288.554688 280.832031 314.363281 C 280.992188 315.675781 281.140625 316.914062 281.277344 318.058594 C 281.558594 320.382812 283.671875 322.046875 286.007812 321.78125 L 287.398438 321.625 C 289.757812 321.363281 291.449219 319.234375 291.167969 316.886719 C 291.027344 315.738281 290.878906 314.492188 290.71875 313.171875 C 287.628906 287.746094 280.398438 228.199219 284.75 196.570312 C 287.78125 174.542969 298.871094 166.671875 311.179688 164.28125 Z M 311.179688 164.28125 " fill-opacity="1" fill-rule="nonzero"/><path fill="#7dca7c" d="M 372.3125 334.785156 L 367.355469 338.660156 L 361.527344 331.214844 C 359.625 328.78125 356.707031 327.359375 353.617188 327.359375 L 332.042969 327.359375 L 342.945312 334.742188 L 354.109375 349.011719 L 349.152344 352.886719 C 348.226562 353.609375 348.644531 355.089844 349.8125 355.222656 L 370.308594 357.566406 C 371.023438 357.648438 371.667969 357.144531 371.761719 356.433594 L 374.425781 335.988281 C 374.574219 334.824219 373.238281 334.0625 372.3125 334.785156 Z M 372.3125 334.785156 " fill-opacity="1" fill-rule="nonzero"/><path fill="#5e985d" d="M 326.554688 355.683594 L 342.945312 334.742188 L 340.183594 331.214844 C 338.277344 328.78125 335.363281 327.359375 332.273438 327.359375 C 329.183594 327.359375 326.265625 328.78125 324.359375 331.214844 L 313.3125 345.332031 C 312.4375 346.449219 312.636719 348.058594 313.75 348.929688 L 322.953125 356.125 C 324.070312 356.996094 325.683594 356.796875 326.554688 355.683594 Z M 326.554688 355.683594 " fill-opacity="1" fill-rule="nonzero"/><path fill="#7dca7c" d="M 381.300781 391.601562 L 363.335938 394.023438 L 362.496094 387.789062 C 362.335938 386.625 360.847656 386.238281 360.144531 387.175781 L 347.761719 403.667969 C 347.332031 404.242188 347.441406 405.054688 348.007812 405.492188 L 364.316406 418.121094 C 365.246094 418.839844 366.582031 418.070312 366.425781 416.90625 L 365.582031 410.671875 L 374.957031 409.410156 C 378.019531 408.996094 380.722656 407.199219 382.28125 404.535156 L 393.179688 385.933594 Z M 381.300781 391.601562 " fill-opacity="1" fill-rule="nonzero"/><path fill="#5e985d" d="M 371.496094 366.886719 L 381.300781 391.601562 L 385.742188 391.003906 C 388.804688 390.589844 391.503906 388.792969 393.066406 386.128906 C 394.628906 383.464844 394.875 380.230469 393.734375 377.359375 L 387.128906 360.695312 C 386.605469 359.378906 385.113281 358.738281 383.796875 359.257812 L 372.9375 363.558594 C 371.617188 364.082031 370.976562 365.570312 371.496094 366.886719 Z M 371.496094 366.886719 " fill-opacity="1" fill-rule="nonzero"/><path fill="#7dca7c" d="M 326.015625 380.285156 L 317.125 361.683594 C 316.816406 361.035156 316.042969 360.753906 315.390625 361.054688 L 296.640625 369.652344 C 295.570312 370.140625 295.632812 371.679688 296.738281 372.078125 L 302.65625 374.222656 L 299.4375 383.109375 C 298.382812 386.011719 298.726562 389.234375 300.367188 391.851562 L 311.816406 410.121094 L 312.292969 396.972656 L 318.464844 379.945312 L 324.382812 382.085938 C 325.488281 382.484375 326.523438 381.347656 326.015625 380.285156 Z M 326.015625 380.285156 " fill-opacity="1" fill-rule="nonzero"/><path fill="#5e985d" d="M 338.75 399.738281 L 312.292969 396.972656 L 310.765625 401.1875 C 309.710938 404.089844 310.054688 407.3125 311.695312 409.929688 C 313.335938 412.546875 316.089844 414.265625 319.160156 414.585938 L 337 416.449219 C 338.410156 416.597656 339.671875 415.574219 339.820312 414.167969 L 341.035156 402.554688 C 341.183594 401.148438 340.160156 399.886719 338.75 399.738281 Z M 338.75 399.738281 " fill-opacity="1" fill-rule="nonzero"/><path fill="#f7beaa" d="M 379.882812 261.792969 C 371.855469 239.453125 357.34375 216.4375 348.78125 203.871094 C 344.148438 211.222656 333.59375 223.757812 314.382812 226.417969 L 314.382812 226.703125 C 318.746094 237.496094 324.597656 252.445312 331.339844 270.898438 C 345.15625 308.710938 363.347656 306.0625 369.707031 303.945312 C 376.066406 301.824219 391.753906 294.835938 379.882812 261.792969 Z M 379.882812 261.792969 " fill-opacity="1" fill-rule="nonzero"/><path fill="#f7beaa" d="M 375.789062 269.433594 C 375.757812 269.40625 297 198.507812 283.964844 195.492188 C 283.964844 195.492188 268.667969 196.691406 267.042969 198.808594 C 265.417969 200.929688 260.613281 207.070312 261.460938 208.695312 C 261.851562 209.449219 262.519531 210.441406 263.121094 211.292969 C 263.914062 212.417969 264.039062 213.878906 263.441406 215.113281 L 262.171875 217.75 C 261.660156 218.808594 261.671875 220.042969 262.199219 221.089844 L 263.628906 223.910156 C 264.09375 224.835938 264.160156 225.910156 263.8125 226.882812 L 262.601562 230.265625 C 262.117188 231.613281 262.441406 233.117188 263.429688 234.148438 L 265.5625 236.371094 C 266.175781 237.007812 266.667969 237.75 267.011719 238.566406 C 267.753906 240.320312 269.429688 243.496094 271.882812 243.574219 C 274.4375 243.652344 280.996094 243.644531 284.074219 243.632812 C 285.128906 243.628906 286.140625 244.035156 286.902344 244.761719 C 287.191406 245.035156 346.070312 301.179688 346.320312 301.414062 C 359.941406 314.292969 382.992188 304.488281 382.917969 285.527344 C 382.917969 279.148438 380.167969 273.410156 375.789062 269.433594 Z M 375.789062 269.433594 " fill-opacity="1" fill-rule="nonzero"/><path fill="#cf7b61" d="M 68.925781 428.230469 C 67.230469 428.234375 65.988281 427.296875 64.890625 425.480469 C 62.730469 421.789062 61.761719 414.007812 65.519531 403.246094 C 65.664062 402.832031 66.117188 402.613281 66.527344 402.757812 C 66.941406 402.902344 67.160156 403.355469 67.015625 403.765625 C 63.4375 414.019531 64.28125 421.292969 66.261719 424.679688 C 66.898438 425.769531 67.675781 426.464844 68.402344 426.59375 C 71.804688 427.257812 72.667969 420.886719 73.789062 414.667969 C 75.25 405.652344 80.855469 397.460938 81.09375 397.117188 C 81.703125 396.28125 82.972656 397.125 82.398438 398.019531 C 82.339844 398.097656 76.757812 406.265625 75.355469 414.921875 C 74.054688 422.246094 73.1875 428.078125 68.925781 428.230469 Z M 68.925781 428.230469 " fill-opacity="1" fill-rule="nonzero"/><path fill="#cf7b61" d="M 72.648438 448.722656 C 72.207031 448.726562 71.847656 448.359375 71.855469 447.917969 C 72.027344 438.394531 73.078125 425.414062 77.121094 417.640625 C 77.320312 417.253906 77.800781 417.101562 78.1875 417.304688 C 78.578125 417.507812 78.730469 417.984375 78.527344 418.375 C 74.421875 426.269531 73.578125 440.289062 73.441406 447.945312 C 73.433594 448.378906 73.082031 448.722656 72.648438 448.722656 Z M 72.648438 448.722656 " fill-opacity="1" fill-rule="nonzero"/><path fill="#cf7b61" d="M 65.195312 453.066406 C 64.796875 453.066406 64.453125 452.765625 64.410156 452.359375 C 63.589844 444.644531 63.65625 437.472656 64.597656 431.035156 C 64.84375 429.359375 65.148438 427.730469 65.511719 426.1875 C 65.609375 425.761719 66.039062 425.496094 66.464844 425.597656 C 66.890625 425.695312 67.15625 426.125 67.054688 426.550781 C 65.199219 434.851562 65.042969 442.707031 65.988281 452.191406 C 66.039062 452.65625 65.664062 453.070312 65.195312 453.070312 Z M 65.195312 453.066406 " fill-opacity="1" fill-rule="nonzero"/><path fill="#cf7b61" d="M 80.226562 442.742188 C 79.777344 442.742188 79.414062 442.367188 79.433594 441.917969 C 80.089844 426.140625 84.957031 416.066406 85.164062 415.644531 C 85.359375 415.253906 85.835938 415.089844 86.226562 415.285156 C 86.621094 415.476562 86.785156 415.953125 86.589844 416.34375 C 86.542969 416.445312 81.660156 426.5625 81.019531 441.984375 C 81 442.410156 80.648438 442.742188 80.226562 442.742188 Z M 80.226562 442.742188 " fill-opacity="1" fill-rule="nonzero"/><path fill="#cf7b61" d="M 369.46875 264.582031 C 360.074219 257.003906 343.476562 241.609375 326.3125 227.511719 C 325.980469 227.230469 325.933594 226.730469 326.214844 226.394531 C 326.496094 226.058594 326.996094 226.011719 327.332031 226.292969 C 344.089844 240.304688 361.253906 255.429688 369.996094 263.199219 C 370.535156 263.660156 370.1875 264.601562 369.46875 264.582031 Z M 369.46875 264.582031 " fill-opacity="1" fill-rule="nonzero"/></svg>